<?xml version="1.0" standalone="no"?><svg xmlns="http://www.w3.org/2000/svg" viewBox="0 0 1440 320"><path fill="#f97a04" fill-opacity="1" d="M0,160L15,154.7C30,149,60,139,90,144C120,149,150,171,180,192C210,213,240,235,270,229.3C300,224,330,192,360,149.3C390,107,420,53,450,37.3C480,21,510,43,540,80C570,117,600,171,630,176C660,181,690,139,720,101.3C750,64,780,32,810,21.3C840,11,870,21,900,48C930,75,960,117,990,117.3C1020,117,1050,75,1080,53.3C1110,32,1140,32,1170,64C1200,96,1230,160,1260,181.3C1290,203,1320,181,1350,186.7C1380,192,1410,224,1425,240L1440,256L1440,0L1425,0C1410,0,1380,0,1350,0C1320,0,1290,0,1260,0C1230,0,1200,0,1170,0C1140,0,1110,0,1080,0C1050,0,1020,0,990,0C960,0,930,0,900,0C870,0,840,0,810,0C780,0,750,0,720,0C690,0,660,0,630,0C600,0,570,0,540,0C510,0,480,0,450,0C420,0,390,0,360,0C330,0,300,0,270,0C240,0,210,0,180,0C150,0,120,0,90,0C60,0,30,0,15,0L0,0Z"></path></svg>